<?xml version="1.0" standalone="no"?><!DOCTYPE svg PUBLIC "-//W3C//DTD SVG 1.1//EN" "http://www.w3.org/Graphics/SVG/1.1/DTD/svg11.dtd"><svg class="icon" width="200px" height="200.00px" viewBox="0 0 1024 1024" version="1.1" xmlns="http://www.w3.org/2000/svg"><path fill="#d81e06" d="M381.788891 301.357536l-19.639293 0 0 33.019021 21.112853 0 0 16.570397-21.112853 0 0 50.571792-20.49887 0 0-50.571792L308.141544 350.946954l0 38.174438c-0.082888 2.946099-1.147126 5.686513-3.191692 8.224312-2.454912 2.780323-5.523807 4.173043-9.205663 4.173043l-28.354791 0-2.700505-16.570397L283.101241 384.948349c1.636267-0.082888 2.823302-0.533143 3.560082-1.349741 0.653893-0.818645 0.981351-1.883907 0.981351-3.191692l0-29.459962-23.199375 0 0-16.570397 23.199375 0 0-33.019021-22.217001 0 0-16.570397L381.788891 284.787138 381.788891 301.357536zM341.650729 334.375533l0-33.019021L308.141544 301.356512l0 33.019021L341.650729 334.375533zM423.522388 389.612579c-0.082888 2.946099-1.147126 5.686513-3.191692 8.224312-2.454912 2.781346-5.523807 4.174066-9.206686 4.174066l-16.07921 0-2.700505-16.570397 6.137791 0c1.636267-0.082888 2.823302-0.533143 3.560082-1.350764 0.653893-0.818645 0.982374-1.882883 0.982374-3.191692l0-23.076578-13.870916 5.892197 0-19.516496 13.870916-5.891174 0-28.600385-13.379729 0 0-16.570397 13.379729 0 0-10.924817 20.49887 0 0 10.924817 6.873548 0 0 16.570397-6.873548 0 0 19.884886 5.891174-2.577708 0 19.516496-5.891174 2.577708L423.523411 389.612579zM494.470253 402.009933l-52.658314 0 0-8.347109 0-8.224312L441.81194 353.401866l-7.855922 0-2.946099-16.570397 7.978718 0c2.454912 0 4.213975-1.390673 5.278213-4.174066l9.942443-31.791054-18.412348 0 0-16.570397 73.157183 0 0 16.570397-32.282241 0-9.69685 25.654286 19.025309 0 10.188037 0 10.310833 0 0 63.460334C506.417353 397.999596 502.407016 402.009933 494.470253 402.009933zM462.310809 385.438513l20.621667 0c2.044566 0 3.068895-1.02433 3.068895-3.068895l0-39.278585-23.689538 0L462.311833 385.438513zM552.65135 402.009933l-34.491559 0 0-8.347109 0-8.224312 0-101.633748 8.961092 0 9.082866 0 10.432607 0 8.961092 0 9.082866 0 0 106.175181C564.59845 397.999596 560.588113 402.009933 552.65135 402.009933zM546.636357 332.904019l0-32.527834-10.432607 0 0 32.527834L546.636357 332.904019zM536.20375 349.474416l0 35.96512 7.364735 0c2.044566 0 3.067872-1.02433 3.067872-3.068895l0-32.895201L536.20375 349.47544zM619.91736 402.009933 606.046445 402.009933l-2.700505-16.570397 5.522784 0c2.044566 0 3.068895-1.02433 3.068895-3.068895l0-17.675568-20.74344 0 0 25.285896c-0.082888 8.018627-4.093225 12.028964-12.029988 12.028964l-9.942443 0-2.700505-16.570397 1.596358 0c2.044566 0 3.067872-1.02433 3.067872-3.068895l0-98.564853L631.946324 283.805788l0 106.175181C631.86446 397.999596 627.8531 402.009933 619.91736 402.009933zM591.194178 300.375162l0 15.83464 20.74344 0 0-15.83464L591.194178 300.375162zM591.194178 332.780199l0 15.343453 20.74344 0 0-15.343453L591.194178 332.780199zM759.848343 300.375162l-48.608068 0 0 26.635637 49.590442 0 0 16.570397-52.167127 0-27.618011 48.362474c-3.518127 6.708795-8.265244 10.06524-14.238282 10.06524l-23.443945 0-2.701528-16.570397 17.185404 0c2.043542-0.082888 3.599991-1.147126 4.66423-3.191692l22.217001-38.665625-44.188408 0 0-16.570397 50.203402 0 0-26.635637-49.222051 0 0-16.570397 118.327966 0L759.849366 300.375162zM743.400742 382.738008c1.307785 1.798972 3.190669 2.700505 5.646604 2.700505l11.784394 0 0 16.570397-17.921161 0c-7.856945 0-13.791098-2.988054-17.799388-8.960069L706.453249 354.384239l22.462594 0L743.400742 382.738008zM634.329605 699.464579c0.825808-1.772366 1.772366-3.427052 2.835581-4.964058 2.243087 0.828878 4.370541 1.537006 6.381337 2.127454 1.418302 0 3.545756 0.473791 6.381337 1.418302 2.835581-2.243087 5.434779-4.608971 7.79964-7.091512 0.825808-0.354064 1.772366-1.063215 2.835581-2.12643 0.825808-0.825808 1.299599-1.299599 1.418302-1.418302 2.243087-0.825808 4.370541-2.00875 6.381337-3.545756l5.672186-8.507768c0.825808-0.355087 1.534959-1.064238 2.127454-2.127454-1.418302-1.772366-2.365884-3.427052-2.835581-4.964058 0-0.355087 0.234337-0.589424 0.708128-0.708128 5.672186 2.835581 9.688663 4.963035 12.053524 6.381337 4.253884 2.835581 7.325849 5.909593 9.217942 9.217942 0.825808 0 1.299599 0.472767 1.418302 1.418302l-1.418302 2.835581c0 0.355087 0.23536 1.063215 0.709151 2.12643-1.772366 0-2.956332 0.23843-3.545756 0.709151-0.828878 0-2.010797 0-3.545756 0-0.827855-0.355087-2.245134-0.589424-4.253884-0.709151-1.772366 0.355087-4.608971 2.01182-8.507768 4.964058-3.664459 2.835581-6.265704 4.493338-7.79964 4.964058-0.828878 0.355087-2.010797 0.592494-3.545756 0.708128l-2.835581 0c-2.246157 0-4.13825 0.709151-5.672186 2.127454 2.835581 1.772366 4.724605 4.846378 5.672186 9.217942-0.355087 0.828878-0.592494 1.772366-0.709151 2.835581l1.418302 1.418302c0.825808 0.355087 1.534959 0.592494 2.127454 0.709151 7.090489-3.66139 15.125489-6.971785 24.108071-9.927093 1.772366 0.828878 3.66139 2.719948 5.67321 5.67321 0.354064 0.827855 0.825808 1.537006 1.418302 2.12643 0.825808 0.828878 1.299599 1.772366 1.418302 2.835581-0.355087 0-0.592494 0.23843-0.709151 0.709151 0 0.355087 0.23536 0.828878 0.709151 1.418302-19.263739 2.246157-32.027437 9.572006-38.289048 21.980617-1.418302 1.772366-1.656733 5.082762-0.709151 9.92607 0 1.418302 0 2.601244 0 3.545756 0.355087 0.355087 0.590448 0.592494 0.709151 0.708128 4.608971-2.243087 6.971785-3.426029 7.090489-3.544733 4.253884-2.835581 6.852058-4.490268 7.79964-4.964058 0.355087 0 0.589424-0.23536 0.709151-0.709151 1.771343-0.354064 3.426029-0.824785 4.963035-1.418302l3.545756-3.544733c1.772366-2.835581 3.66139-4.490268 5.672186-4.964058 6.499018-4.608971 11.226692-10.281157 14.180977-17.017582-0.355087-0.825808-0.592494-1.534959-0.708128-2.127454 0.825808-1.771343 1.533936-3.89982 2.12643-6.380314 5.67321-8.508791 8.744151-14.417361 9.217942-17.726733-0.355087-0.355087-1.063215-1.063215-2.12643-2.127454-1.772366-1.771343-2.956332-3.189645-3.545756-4.253884-1.772366 1.418302-2.955308 2.601244-3.545756 3.545756 0 1.772366 0 3.429099 0 4.964058 0 0.354064 0.23536 1.063215 0.709151 2.12643-0.828878 0-1.537006 0.23843-2.127454 0.709151 0-0.355087 0-1.063215 0-2.127454 0.825808-6.497994 1.299599-11.225669 1.418302-14.180977-0.355087-0.354064-0.592494-0.825808-0.708128-1.418302 1.418302-1.418302 2.835581-2.12643 4.253884-2.12643 0.355087 0.355087 0.589424 0.592494 0.708128 0.708128 0.355087-0.354064 1.534959-0.589424 3.545756-0.708128 7.091512 3.664459 10.636245 10.990309 10.636245 21.979594-0.355087 0.355087-0.592494 0.828878-0.708128 1.419326 0.354064 0.354064 0.589424 0.592494 0.708128 0.708128 5.67321-5.672186 12.289907-8.507768 19.853164-8.507768l2.835581 1.418302c0.355087-0.355087 0.825808-0.590448 1.419326-0.709151 4.253884 4.253884 8.270361 8.273431 12.053524 12.053524l-3.545756 7.091512c0 1.772366-0.237407 3.429099-0.709151 4.963035l0 7.79964c0 2.836605 0 5.436826 0 7.79964 0 0.828878-0.237407 1.538029-0.708128 2.127454-1.772366 3.664459-2.719948 6.264681-2.835581 7.79964 0 0.828878-0.23843 1.537006-0.709151 2.12643-1.772366 8.508791-3.664459 14.180977-5.672186 17.017582-2.246157 5.67321-6.501064 9.217942-12.763698 10.636245-6.027274-7.444553-10.518564-15.479553-13.471826-24.108071-0.355087 1.418302-0.592494 4.253884-0.709151 8.508791 1.419326 9.92607 2.127454 21.036106 2.127454 33.32499-0.355087 1.418302-1.063215 3.074012-2.127454 4.964058-0.827855 1.772366-1.300622 3.429099-1.418302 4.963035 0 0.828878-0.237407 1.772366-0.708128 2.836605-0.355087 2.835581-1.063215 5.672186-2.127454 8.507768-1.418302 4.253884-2.365884 6.852058-2.835581 7.79964 0-2.835581-0.473791-7.564279-1.418302-14.180977-1.418302-7.090489-2.127454-11.106965-2.127454-12.053524-0.354064-4.253884-0.592494-10.636245-0.708128-19.144012 0-7.445576-0.23843-13.117762-0.709151-17.017582 0.825808-6.027274 1.534959-12.408611 2.127454-19.145036 0.355087-4.608971 0.589424-11.225669 0.708128-19.853164-0.827855-1.418302-1.771343-2.362814-2.835581-2.835581-9.336646 17.017582-18.318204 30.726815-26.943652 41.12463l-8.508791 7.090489c-6.501064 3.664459-10.044774 7.684006-10.636245 12.054547-1.772366-1.418302-3.190669-2.127454-4.253884-2.127454-1.418302 0.355087-3.309372 1.772366-5.672186 4.253884-1.418302-1.772366-2.127454-3.190669-2.127454-4.253884-0.828878-1.772366-1.537006-2.953262-2.12643-3.545756 0-0.825808 0.234337-1.772366 0.708128-2.835581l-1.418302-2.835581c0-0.825808-0.237407-1.772366-0.709151-2.835581l1.419326-2.835581c-1.419326-2.835581-2.127454-5.434779-2.127454-7.79964 0-0.355087 0-1.064238 0-2.127454 1.418302-3.66139 2.835581-7.680936 4.253884-12.053524 1.772366-4.608971 2.716878-8.625448 2.835581-12.053524l-1.418302-1.418302c0-0.825808 0.23536-1.534959 0.709151-2.127454-2.246157-1.772366-4.13825-3.66139-5.67321-5.672186l2.836605 0c0.354064 0 0.825808 0.237407 1.418302 0.708128 0-0.354064 0.234337-0.589424 0.708128-0.708128-1.772366-1.418302-3.664459-3.545756-5.672186-6.381337-1.418302-1.772366-2.835581-3.89982-4.253884-6.381337-0.355087-1.418302-1.538029-2.12643-3.545756-2.12643C634.329605 700.767248 633.855814 700.058097 634.329605 699.464579zM718.70734 742.717685c3.190669 7.090489 7.207146 11.818163 12.053524 14.180977 1.772366-1.419326 2.716878-2.836605 2.835581-4.254907 0.825808-1.772366 1.534959-3.426029 2.127454-4.963035 0.825808-2.243087 2.243087-6.262634 4.253884-12.054547 1.772366-3.190669 3.190669-7.206122 4.253884-12.053524 0.355087-1.772366 0.590448-4.608971 0.709151-8.507768l-0.709151-0.709151c1.418302-3.190669 2.363837-6.261611 2.836605-9.217942-0.828878-0.355087-2.01182-0.589424-3.545756-0.708128-0.355087 0-0.592494 0.237407-0.709151 0.708128-0.354064 0-1.063215-0.234337-2.12643-0.708128 0-0.355087-0.709151-0.590448-2.127454-0.709151-1.772366 2.246157-3.89982 4.373611-6.381337 6.381337-2.246157 2.835581-4.608971 4.493338-7.090489 4.964058-0.828878 0.355087-2.719948 0.592494-5.672186 0.708128-1.772366 0.828878-3.190669 1.538029-4.254907 2.127454-0.354064 0.355087-0.592494 2.246157-0.708128 5.672186 0.355087 1.772366 0.589424 4.13825 0.708128 7.091512 0.355087 0.827855 0.590448 1.771343 0.709151 2.835581C717.289038 738.108714 718.23355 741.182726 718.70734 742.717685zM299.702338 515.122107l4.711302 0 0 103.988376-27.13501 0 0-93.589538-6.499018 0-3.89982-21.934568 3.89982 0c3.25002 0 5.252631-1.62501 6.011924-4.875031l10.561543-36.233226 27.783787 0-14.785751 50.857295C300.027749 513.877767 299.808762 514.472308 299.702338 515.122107zM349.096305 604.162026c-1.733481 9.964956-7.367805 14.948457-16.897855 14.948457l-19.822464 0-3.89982-21.935592 10.56052 0c2.381234 0 3.790326-1.62501 4.224208-4.875031l11.861142-81.728396L312.214303 510.571465l0-21.935592 25.997094 0 4.062526-26.809599 28.434609 0-4.224208 26.809599 17.223267 0-4.386914-19.659759 27.13501 0 4.386914 19.659759 12.510942 0 0 21.935592-60.118216 0L349.096305 604.162026zM395.40398 522.270924l0 70.842465c0 2.706645 1.352811 4.062526 4.061502 4.062526l25.184589 0 0 21.935592-40.458457 0c-10.616802-0.109494-15.923668-5.418406-15.923668-15.923668l0-80.915891L395.40398 522.271948zM720.692554 466.214211c1.949398 0 3.303232-0.540306 4.061502-1.623987 0.86674-1.081635 1.300622-2.328022 1.300622-3.737114l0-0.324388 26.485211 0 0 9.261944c0 3.683902-1.300622 7.042393-3.900843 10.073426-2.923586 3.358491-6.661723 5.036713-11.210319 5.036713l-45.007053 0 0 8.286734 64.342424 0 0 19.335371-64.342424 0 0 31.359218 25.51 0 4.386914 0c-1.194198-1.300622-2.275833-2.653433-3.25002-4.062526l-11.862165-20.147876 30.384008 0 5.849218 8.612145c1.731434 2.599198 4.115738 3.89982 7.148817 3.89982l7.475252 0 0 19.335371-9.099239 0 0 9.099239L729.467405 573.127196l25.021883 0 0 30.05962c-0.109494 10.613732-5.418406 15.923668-15.923668 15.923668l-49.557696 0-3.574409-19.336394 37.208437 0c2.706645 0 4.061502-1.355881 4.061502-4.062526l0-5.849218-10.236132 0-36.233226 0 0-8.449439 21.935592-15.598256-51.018977 0-12.022825 40.782845c-2.384303 8.338922-7.855922 12.511965-16.410762 12.511965l-19.822464 0-3.900843-21.935592 10.07445 0c3.25002 0 5.252631-1.681292 6.011924-5.037736l7.636934-26.322505-16.73515 0 0-12.998035-3.737114 0-3.89982-19.335371 7.798617 0c3.032056 0 5.253654-0.975211 6.662747-2.924609l6.661723-10.885931 30.384008 0-14.948457 24.210401 30.384008 0 0-31.359218-64.50513 0 0-19.335371 64.50513 0 0-8.286734-60.442604 0-2.924609-18.685571L720.692554 466.213187zM511.233032 129.317251c-210.119555 0-380.455012 170.335457-380.455012 380.455012 0 210.118532 170.335457 380.453988 380.455012 380.453988 210.118532 0 380.453988-170.335457 380.453988-380.453988C891.68702 299.652707 721.351564 129.317251 511.233032 129.317251zM511.233032 878.142028c-203.445552 0-368.369765-164.925237-368.369765-368.368742 0-203.445552 164.924213-368.369765 368.369765-368.369765 203.444529 0 368.368742 164.925237 368.368742 368.369765C879.601774 713.216791 714.676537 878.142028 511.233032 878.142028zM511.233032 75.503625c-239.84046 0-434.268638 194.428178-434.268638 434.268638 0 239.839437 194.428178 434.268638 434.268638 434.268638 239.839437 0 434.268638-194.429201 434.268638-434.268638C945.50167 269.931802 751.072469 75.503625 511.233032 75.503625zM511.233032 911.786289c-222.026746 0-402.014026-179.988304-402.014026-402.013003 0-222.026746 179.987281-402.014026 402.014026-402.014026 222.025723 0 402.013003 179.987281 402.013003 402.014026C913.246035 731.797985 733.258755 911.786289 511.233032 911.786289z" /></svg>