<?xml version="1.0" standalone="no"?><!DOCTYPE svg PUBLIC "-//W3C//DTD SVG 1.1//EN" "http://www.w3.org/Graphics/SVG/1.1/DTD/svg11.dtd"><svg class="icon" width="200px" height="200.00px" viewBox="0 0 1024 1024" version="1.1" xmlns="http://www.w3.org/2000/svg"><path fill="#d81e06" d="M989.2864 0L1024 98.781867s-122.402133 127.658667-241.4592 289.041066l164.010667 169.472a68.266667 68.266667 0 0 1 0 94.9248l-0.785067 0.8192a65.024 65.024 0 0 1-93.422933 0l-147.933867-152.8832C539.9552 749.568 400.9984 1024 400.9984 1024L0 568.661333l100.215467-109.1584 245.077333 234.871467s98.577067-163.7376 234.496-322.935467l-172.032-177.800533a68.266667 68.266667 0 0 1 0-94.9248l0.785067-0.8192a65.024 65.024 0 0 1 91.921066-1.501867l1.501867 1.501867 168.7552 174.421333C821.9648 118.9888 989.2864 0 989.2864 0z" /></svg>