<?xml version="1.0" standalone="no"?><!DOCTYPE svg PUBLIC "-//W3C//DTD SVG 1.1//EN" "http://www.w3.org/Graphics/SVG/1.1/DTD/svg11.dtd"><svg class="icon" width="200px" height="200.00px" viewBox="0 0 1024 1024" version="1.1" xmlns="http://www.w3.org/2000/svg"><path fill="#d81e06" d="M347.416073 852.516746c-3.899619 0-7.799238-7.799238-7.799239-7.799238 0-3.899619 3.899619-7.799238 3.899619-7.799238 124.487843-58.394297 256.874915-89.491261 389.161996-93.39088v3.899619c11.698858 0 23.397715-3.899619 34.996583-3.899619v7.799238c-136.186701 15.598477-264.574163 46.69544-393.061615 89.491261-3.899619 7.799238-15.598477 7.799238-27.197344 11.698857m389.062005-342.466556c-7.799238 31.096963-19.498096 62.293917-34.996582 85.591642l-31.096963 34.996582c-7.799238 11.698858-19.498096 19.498096-34.996583 23.297725-7.799238 3.899619-11.698858-19.498096-11.698857-23.297725 3.899619-50.595059 34.996582-101.190118 77.792403-128.387462 0 3.899619 0 7.799238 3.899619 7.799238 7.799238-7.799238 15.598477-11.698858 19.498096-15.598476 7.799238 0 15.498486 3.899619 11.598867 15.598476m31.196954-7.799238c0-15.598477-7.799238-27.197344-19.498096-34.996582 3.899619 0 7.799238-3.899619 7.799238-7.799239-7.799238-11.698858-19.498096-19.498096-34.996582-19.498096-38.896202 15.598477-77.792403 38.896202-101.190118 73.892784-27.197344 34.996582-38.896202 73.892784-38.896202 116.788595 0 15.598477 7.799238 27.197344 19.498096 38.896202 7.799238 11.698858 23.397715 15.598477 38.896202 15.598476 77.792403-19.398106 132.287081-97.290499 128.387462-182.88214m-412.559711 23.397715l-34.996583 15.498487c-3.899619 3.899619-7.799238 3.899619-7.799238 3.899619-3.899619 0-3.899619-7.799238-3.899619-7.799239 0-7.799238 7.799238-15.598477 15.598477-19.498095 19.498096-15.598477 34.996582-27.197344 58.394297-34.996583 7.799238 3.899619 15.598477 11.698858 19.498096 19.498096 0 7.799238 0 7.799238-42.795821 105.089737-15.598477 31.096963-27.197344 62.293917-31.096963 97.290499 0 3.899619 3.899619 7.799238 3.899619 11.698858v3.899619l-3.899619 3.899619c-3.899619 0-7.799238 0-7.799238-3.899619-15.598477 0-27.197344-7.799238-31.096964-23.297725 0-23.297725 7.799238-50.595059 15.598477-73.892784 11.498877-31.296944 30.996973-62.393907 50.395079-97.390489m186.781759 3.799629c-7.799238 31.096963-19.498096 62.293917-34.996582 85.591642l-31.096963 34.996582c-7.799238 11.698858-19.498096 19.498096-34.996583 23.397715-7.799238 3.899619-11.698858-19.498096-11.698857-23.397715 3.899619-50.595059 34.996582-101.190118 77.792403-128.387462 0 3.899619 0 7.799238 3.899619 7.799238 7.799238-7.799238 15.598477-11.698858 19.498096-15.598477 7.799238 0.09999 15.498486 7.899229 11.598867 15.598477m31.196954 0c0-15.598477-7.799238-31.096963-19.498096-38.896201 3.899619 0 7.799238-3.899619 7.799238-7.799239-7.799238-11.698858-19.498096-19.498096-34.996582-19.498096-38.896202 15.598477-77.792403 38.896202-101.190118 73.892784-27.197344 34.996582-38.896202 73.892784-38.896202 116.788595 0 15.598477 7.799238 31.096963 19.498096 38.896202 7.799238 11.698858 23.397715 15.598477 38.896202 15.598476 81.692022-23.297725 132.287081-97.190509 128.387462-178.982521M308.419881 798.022068c124.487843-58.394297 256.874915-89.491261 389.161996-93.39088v3.89962c11.698858 0 23.297725-3.899619 34.996582-3.89962v7.799239C596.391759 728.028903 468.004296 759.125867 339.516844 801.921687c-11.698858 7.799238-19.498096 7.799238-31.096963 11.698858-3.899619 0-3.899619-3.899619-3.899619-7.799238l3.899619-7.799239zM504.700713 234.177131c-11.998828 0-19.998047-7.999219-19.998047-19.998047s7.999219-19.998047 19.998047-19.998047h263.57426c11.998828 0 19.998047 7.999219 19.998047 19.998047s-7.999219 19.998047-19.998047 19.998047H504.700713m80.192169 100.290206c-11.998828 0-19.998047-7.999219-19.998048-19.998047s7.999219-19.998047 19.998048-19.998047h183.382091c11.998828 0 19.998047 7.999219 19.998047 19.998047s-7.999219 19.998047-19.998047 19.998047H584.892882"  /><path fill="#d81e06" d="M107.039547 288.371839V918.910263c0 57.894346 47.295381 105.089737 105.389708 105.089737h599.14149C869.665072 1024 916.960453 976.904599 916.960453 918.910263V105.089737C916.960453 47.195391 869.665072 0 811.570745 0H396.111317c-3.999609 0-9.299092 2.199785-12.098818 4.999512l-50.195098 49.995117c-0.699932 0.799922-1.499854 1.399863-2.299776 2.199786l-166.983693 166.683722c-0.799922 0.799922-1.499854 1.599844-2.299775 2.399766l-50.195098 49.995117c-2.699736 2.799727-4.999512 8.199199-4.999512 12.098819z m257.774827-159.284445v104.989747c0 12.398789-10.498975 22.897764-22.897764 22.897764H236.626892c-3.899619 0-4.899522-2.199785-2.099795-4.999512l125.287765-124.987794c2.799727-2.699736 4.999512-1.799824 4.999512 2.099795zM189.431501 918.810272V339.066888h152.385118c58.094327 0 105.389708-47.095401 105.389709-105.089737V82.191973h364.364417c12.398789 0 22.897764 10.498975 22.897764 22.897764v813.720535c0 12.398789-10.498975 22.897764-22.897764 22.897764H212.429255c-12.398789 0-22.897764-10.498975-22.897764-22.897764h-0.09999z"  /></svg>