<?xml version="1.0" standalone="no"?><!DOCTYPE svg PUBLIC "-//W3C//DTD SVG 1.1//EN" "http://www.w3.org/Graphics/SVG/1.1/DTD/svg11.dtd"><svg class="icon" width="200px" height="200.00px" viewBox="0 0 1024 1024" version="1.1" xmlns="http://www.w3.org/2000/svg"><path fill="#d81e06" d="M740.51 581.75L617.03 457.33l110.25-88.2c130.95-104.78 135.24-124.95 126.6-144.06-5.88-13.05-19.64-17.64-41.45-13.64a982.394 982.394 0 0 0-215.56 128.24 366.916 366.916 0 0 1-60.04 39.81c-16.93-8.7-72.03-42.57-143.53-90.02-145.71-97.67-159.35-97.67-164.64-97.67a65.493 65.493 0 0 0-42.04 22.4 42.985 42.985 0 0 0-12.53 29.99 39.381 39.381 0 0 0 18.52 26.75c84.61 65.5 203.57 166.99 236.32 198.1-15.82 19.11-57.27 63.86-124.42 130.95l-151.7 150.59 61.15 48.04c49.63 38.75 54.57 38.75 61.09 38.75 10.41 0 15.29 0 66.03-74.21a1655.894 1655.894 0 0 1 119.48-147 778.63 778.63 0 0 1 64.68-64.68c43.1 53.45 97.14 118.95 145.18 176.4 84.03 99.96 84.55 99.96 96.02 99.96 4.94 0 12.58 0 64.39-41.16l62.74-50.22-153.06-154.7z"  /></svg>