<?xml version="1.0" standalone="no"?><!DOCTYPE svg PUBLIC "-//W3C//DTD SVG 1.1//EN" "http://www.w3.org/Graphics/SVG/1.1/DTD/svg11.dtd"><svg class="icon" width="200px" height="162.93px" viewBox="0 0 1257 1024" version="1.1" xmlns="http://www.w3.org/2000/svg"><path fill="#d81e06" d="M1003.47808 663.918189c-80.85137-83.921675-247.159568-255.858766-361.784295-354.620249a1400.059167 1400.059167 0 0 0-137.140299-102.343507c-68.058432-47.078013-91.085721-64.988127-80.85137-107.972399 5.117175-23.027289 16.886679-33.773357 35.820228-33.773357 38.378815 0 102.343506 39.913967 231.808042 141.745756s315.218 402.20998 358.202272 489.201961l-9.210916 6.652328z"  /><path fill="#d81e06" d="M315.729717 1023.655614a56.800646 56.800646 0 0 1-54.242058-26.097594c-24.562442-51.171753-47.58973-98.761484-70.61702-148.398084A2410.701293 2410.701293 0 0 0 5.117175 500.168579a22.515571 22.515571 0 0 1 0-25.585877 142.257474 142.257474 0 0 1 111.554422-51.171753 51.171753 51.171753 0 0 1 43.49599 15.351526 2489.505793 2489.505793 0 0 1 188.82377 362.80773l12.281221 25.585877 15.351525-23.539007A3422.366853 3422.366853 0 0 1 1102.239564 21.712687 165.79648 165.79648 0 0 1 1192.813567 0.22055c40.937403 0 61.917821 9.722633 63.452974 14.839809s0 7.675763-16.374961 19.956983a3347.144376 3347.144376 0 0 0-818.748051 940.025107 136.116863 136.116863 0 0 1-105.413812 48.613165z"  /></svg>