<?xml version="1.0" standalone="no"?><!DOCTYPE svg PUBLIC "-//W3C//DTD SVG 1.1//EN" "http://www.w3.org/Graphics/SVG/1.1/DTD/svg11.dtd"><svg class="icon" width="200px" height="200.00px" viewBox="0 0 1024 1024" version="1.1" xmlns="http://www.w3.org/2000/svg"><path fill="#d81e06" d="M911.8 839.7L750.9 678.8c120.1-160.6 87.3-388.2-73.4-508.3s-388.2-87.3-508.3 73.4C122.4 306.7 97 383 97 461.4c0 200.5 162.6 363.1 363.1 363.1 78.4 0 154.7-25.4 217.5-72.3L838.4 913c20.2 20.3 53.1 20.3 73.4 0.1s20.3-53.1 0-73.4z m-451.7-119c-143.2 2-261-112.4-263-255.7s112.4-261 255.7-263h7.3c143.2 0 259.4 116.1 259.4 259.4S603.4 720.7 460.1 720.7zM304.5 461.4c0 28.6 23.2 51.9 51.9 51.9h207.5c28.6 0 51.9-23.2 51.9-51.9 0-28.6-23.2-51.9-51.9-51.9H356.4c-28.7 0-51.9 23.2-51.9 51.9z" /></svg>