<?xml version="1.0" standalone="no"?><!DOCTYPE svg PUBLIC "-//W3C//DTD SVG 1.1//EN" "http://www.w3.org/Graphics/SVG/1.1/DTD/svg11.dtd"><svg class="icon" width="200px" height="200.00px" viewBox="0 0 1024 1024" version="1.1" xmlns="http://www.w3.org/2000/svg"><path fill="#d81e06" d="M512.6 927.4C284 927.4 98 741.4 98 512.8 98 284.2 284 98.2 512.6 98.2s414.6 186 414.6 414.6c0 228.6-186 414.6-414.6 414.6z m0-774.7c-198.6 0-360.2 161.6-360.2 360.1S314 873 512.6 873s360.1-161.6 360.1-360.2-161.5-360.1-360.1-360.1z"  /><path fill="#d81e06" d="M512.6 780.7c-147.7 0-267.9-120.2-267.9-267.9 0-15 12.2-27.2 27.2-27.2s27.2 12.2 27.2 27.2c0 117.7 95.7 213.4 213.4 213.4s213.4-95.7 213.4-213.4c0-15 12.2-27.2 27.2-27.2s27.2 12.2 27.2 27.2c0.1 147.7-120 267.9-267.7 267.9z"  /><path fill="#d81e06" d="M377.9 378.2m-39.4 0a39.4 39.4 0 1 0 78.8 0 39.4 39.4 0 1 0-78.8 0Z"  /><path fill="#d81e06" d="M655.9 378.2m-39.4 0a39.4 39.4 0 1 0 78.8 0 39.4 39.4 0 1 0-78.8 0Z"  /></svg>