<?xml version="1.0" standalone="no"?><!DOCTYPE svg PUBLIC "-//W3C//DTD SVG 1.1//EN" "http://www.w3.org/Graphics/SVG/1.1/DTD/svg11.dtd"><svg class="icon" width="200px" height="200.00px" viewBox="0 0 1024 1024" version="1.1" xmlns="http://www.w3.org/2000/svg"><path fill="#d81e06" d="M598.4 618.4c-26.6-14.9-57.1-23-85.7-23-39.4 0-70.1 12.5-89 23-23.7 13.2-42.1 30.6-50.6 47.8-2.9 6-0.5 13.1 5.5 16.1 6 2.9 13.1 0.5 16.1-5.5 18.3-37.4 80.3-57.4 118-57.4 54.2 0 103.5 33.4 115.1 57.3 2.1 4.3 6.4 6.8 10.8 6.8 1.7 0 3.5-0.4 5.2-1.2 6-2.9 8.5-10.1 5.6-16-8.1-17-26.7-34.4-51-47.9z"  /><path fill="#d81e06" d="M852.4 367.4c-18.7-44.1-45.4-83.7-79.4-117.7-34-34-73.6-60.7-117.7-79.4-45.7-19.3-94.2-29.1-144.2-29.1-50 0-98.5 9.8-144.2 29.1-44.1 18.7-83.7 45.4-117.7 79.4-34 34-60.7 73.6-79.4 117.7-19.3 45.7-29.1 94.2-29.1 144.2s9.8 98.5 29.1 144.2c18.7 44.1 45.4 83.7 79.4 117.7 34 34 73.6 60.7 117.7 79.4 45.7 19.3 94.2 29.1 144.2 29.1 50 0 98.5-9.8 144.2-29.1 44.1-18.7 83.7-45.4 117.7-79.4 34-34 60.7-73.6 79.4-117.7 19.3-45.7 29.1-94.2 29.1-144.2s-9.8-98.5-29.1-144.2zM747.5 748.1C684.4 811.2 600.4 846 511.1 846c-89.3 0-173.3-34.8-236.5-97.9-63.2-63.2-97.9-147.1-97.9-236.5 0-89.3 34.8-173.3 97.9-236.5s147.1-97.9 236.5-97.9c89.3 0 173.3 34.8 236.5 97.9 63.2 63.2 97.9 147.1 97.9 236.5 0 89.3-34.8 173.3-98 236.5z"  /><path fill="#d81e06" d="M351.9 442.8m-43.9 0a43.9 43.9 0 1 0 87.8 0 43.9 43.9 0 1 0-87.8 0Z"  /><path fill="#d81e06" d="M673.4 439.9m-43.9 0a43.9 43.9 0 1 0 87.8 0 43.9 43.9 0 1 0-87.8 0Z"  /></svg>